<svg xmlns="http://www.w3.org/2000/svg" viewBox="0 0 100 100">
  <!-- Tab favicon: the CatMark's face only — full-body line art is illegible at 16px,
       so the smallest surface gets the tightest crop and the heaviest stroke. The PNG
       icons (full-body cat, rendered from the CatMark paths via headless Chrome) live
       alongside; Original-skin cream/ink palette. -->
  <rect width="100" height="100" rx="21" fill="#FAF6EE"/>
  <g transform="translate(-17.2,10.3) scale(0.672)" fill="none" stroke="#33302A" stroke-width="6.7" stroke-linecap="round" stroke-linejoin="round">
    <path d="M64,74 C60,62 64,50 72,44 L74,26 L90,36 C96,33 104,33 110,36 L126,26 L128,44 C136,52 138,64 134,74 C130,86 118,92 100,92 C82,92 68,86 64,74 Z"/>
    <path d="M84,64 C87,68 91,68 94,64"/><path d="M106,64 C109,68 113,68 116,64"/>
    <path d="M98,76 L102,76 L100,79 Z" fill="#33302A"/>
    <line x1="58" y1="70" x2="42" y2="66"/><line x1="58" y1="76" x2="42" y2="78"/>
    <line x1="142" y1="70" x2="158" y2="66"/><line x1="142" y1="76" x2="158" y2="78"/>
  </g>
</svg>
